<?xml version="1.0" encoding="utf-8"?>
<!-- Generator: Adobe Illustrator 22.0.1, SVG Export Plug-In . SVG Version: 6.00 Build 0)  -->
<svg version="1.1" id="Layer_1" xmlns="http://www.w3.org/2000/svg" xmlns:xlink="http://www.w3.org/1999/xlink" x="0px" y="0px"
	 viewBox="0 0 184.9 188.7" style="enable-background:new 0 0 184.9 188.7;" xml:space="preserve">
<style type="text/css">
	.st0{fill:#FFFFFF;}
	.st1{fill:#E1183A;}
	.st2{fill:#F3C217;}
	.st3{fill:#4E81EE;}
	.st4{fill:#34A751;}
	.st5{fill:#FFB600;}
	.st6{fill:#ACACAC;}
	.st7{fill:#5B5B5B;}
</style>
<g>
	<path id="XMLID_5_" class="st0" d="M63.5,5.2C40.5,13,20.9,30.3,10.1,52c-3.8,7.5-6.5,15.5-8.2,23.7c-4.2,20.5-1.3,42.3,8.2,61
		c6.1,12.2,15,23,25.6,31.5c10.1,8,21.8,14,34.3,17.3c15.7,4.2,32.4,4.1,48.3,0.5c14.3-3.3,27.8-10.1,38.6-20.1
		c11.4-10.5,19.6-24.3,23.9-39.2c4.7-16.2,5.4-33.5,2.4-50.1c-29.6,0-59.2,0-88.8,0c0,12.3,0,24.6,0,36.8c17.1,0,34.3,0,51.4,0
		c-2,11.8-9,22.5-18.9,29.1c-6.2,4.2-13.4,6.9-20.8,8.2c-7.4,1.3-15.1,1.4-22.5-0.1c-7.5-1.5-14.7-4.6-21-9.1
		c-10-7-17.7-17.4-21.6-29c-4-11.8-4-24.9,0-36.7c2.8-8.3,7.5-16,13.7-22.2c7.6-7.8,17.5-13.4,28.2-15.7c9.1-1.9,18.8-1.6,27.7,1.1
		c7.6,2.3,14.6,6.5,20.3,12c5.8-5.8,11.6-11.6,17.4-17.3c3-3.1,6.2-6.1,9.2-9.3c-8.8-8.1-19.1-14.7-30.4-18.8
		C106.8-1.7,83.9-1.9,63.5,5.2z"/>
	<g>
		<g>
			<path id="XMLID_14_" class="st1" d="M63.5,5.2c20.4-7.1,43.3-6.9,63.6,0.6c11.3,4.1,21.6,10.7,30.4,18.8
				c-2.9,3.2-6.1,6.2-9.2,9.3c-5.8,5.8-11.6,11.6-17.4,17.3c-5.7-5.5-12.7-9.6-20.3-12c-8.9-2.7-18.6-3.1-27.7-1.1
				c-10.7,2.3-20.6,7.9-28.2,15.7C48.5,60,43.8,67.7,41,76c-10.3-8-20.6-16-30.9-24C20.9,30.3,40.5,13,63.5,5.2z"/>
		</g>
	</g>
	<g>
		<path id="XMLID_3_" class="st2" d="M1.9,75.7c1.7-8.2,4.4-16.2,8.2-23.7C20.4,60,30.7,68,41,76c-4.1,11.8-4,24.9,0,36.7
			c-10.3,8-20.6,16-30.9,24C0.6,118-2.3,96.2,1.9,75.7z"/>
	</g>
	<g>
		<g>
			<path id="XMLID_13_" class="st3" d="M94.3,76.7c29.6,0,59.2,0,88.8,0c2.9,16.6,2.3,33.9-2.4,50.1c-4.3,14.9-12.5,28.7-23.9,39.2
				c-10-7.8-20-15.5-30-23.3c9.9-6.6,16.9-17.4,18.9-29.1c-17.1,0-34.3,0-51.4,0C94.3,101.2,94.4,88.9,94.3,76.7z"/>
		</g>
	</g>
	<g>
		<path id="XMLID_1_" class="st4" d="M10,136.7c10.3-8,20.6-16,30.9-24c3.9,11.6,11.6,21.9,21.6,29c6.3,4.4,13.5,7.6,21,9.1
			c7.4,1.5,15.1,1.3,22.5,0.1c7.4-1.3,14.5-4,20.8-8.2c10,7.8,20,15.5,30,23.3c-10.8,10-24.3,16.8-38.6,20.1
			c-15.8,3.6-32.6,3.7-48.3-0.5c-12.5-3.3-24.2-9.2-34.3-17.3C25,159.7,16.2,148.9,10,136.7z"/>
	</g>
</g>
</svg>
